<mxfile host="Electron" agent="Mozilla/5.0 (Windows NT 10.0; Win64; x64) AppleWebKit/537.36 (KHTML, like Gecko) draw.io/26.1.1 Chrome/132.0.6834.210 Electron/34.3.3 Safari/537.36" version="26.1.1">
  <diagram id="uO3wlwktRyiJuxHiQIR9" name="Page-2">
    <mxGraphModel dx="3119" dy="2583" grid="1" gridSize="10" guides="1" tooltips="1" connect="1" arrows="1" fold="1" page="1" pageScale="1" pageWidth="850" pageHeight="1100" math="0" shadow="0">
      <root>
        <mxCell id="0" />
        <mxCell id="1" parent="0" />
        <mxCell id="UCmkBhxg7ZvuFldwoFRE-1" value="&lt;h2&gt;&lt;b&gt;&lt;i&gt;&lt;u&gt;&lt;font face=&quot;Garamond&quot;&gt;Patient&lt;/font&gt;&lt;/u&gt;&lt;/i&gt;&lt;/b&gt;&lt;/h2&gt;" style="whiteSpace=wrap;html=1;align=center;fillColor=#bac8d3;strokeColor=#23445d;" parent="1" vertex="1">
          <mxGeometry x="-250" y="470" width="90" height="30" as="geometry" />
        </mxCell>
        <mxCell id="UCmkBhxg7ZvuFldwoFRE-2" value="&lt;h2&gt;&lt;font face=&quot;Garamond&quot;&gt;&lt;u&gt;Visit&lt;/u&gt;&lt;/font&gt;&lt;/h2&gt;" style="whiteSpace=wrap;html=1;align=center;fillColor=#bac8d3;strokeColor=#23445d;" parent="1" vertex="1">
          <mxGeometry x="170" y="465" width="115" height="40" as="geometry" />
        </mxCell>
        <mxCell id="UCmkBhxg7ZvuFldwoFRE-3" value="&lt;h2&gt;&lt;u style=&quot;&quot;&gt;&lt;font face=&quot;Garamond&quot;&gt;&lt;i&gt;Treatment&lt;/i&gt;&lt;/font&gt;&lt;/u&gt;&lt;/h2&gt;" style="whiteSpace=wrap;html=1;align=center;fillColor=#bac8d3;strokeColor=#23445d;" parent="1" vertex="1">
          <mxGeometry x="-250" y="160" width="90" height="30" as="geometry" />
        </mxCell>
        <mxCell id="UCmkBhxg7ZvuFldwoFRE-6" value="&lt;h2&gt;&lt;i&gt;&lt;b&gt;&lt;u&gt;&lt;font face=&quot;Garamond&quot;&gt;Procedure&lt;/font&gt;&lt;/u&gt;&lt;/b&gt;&lt;/i&gt;&lt;/h2&gt;" style="whiteSpace=wrap;html=1;align=center;fillColor=#bac8d3;strokeColor=#23445d;" parent="1" vertex="1">
          <mxGeometry x="540" y="550" width="120" height="50" as="geometry" />
        </mxCell>
        <mxCell id="UCmkBhxg7ZvuFldwoFRE-7" value="&lt;h2&gt;&lt;u&gt;&lt;i&gt;&lt;b&gt;&lt;font face=&quot;Garamond&quot;&gt;Tools&lt;/font&gt;&lt;/b&gt;&lt;/i&gt;&lt;/u&gt;&lt;/h2&gt;" style="whiteSpace=wrap;html=1;align=center;fillColor=#bac8d3;strokeColor=#23445d;" parent="1" vertex="1">
          <mxGeometry x="410" y="830" width="110" height="40" as="geometry" />
        </mxCell>
        <mxCell id="UCmkBhxg7ZvuFldwoFRE-8" value="&lt;h2&gt;&lt;font face=&quot;Times New Roman&quot;&gt;&lt;i&gt;&lt;u&gt;Medication&lt;/u&gt;&lt;/i&gt;&lt;/font&gt;&lt;/h2&gt;" style="whiteSpace=wrap;html=1;align=center;fillColor=#bac8d3;strokeColor=#23445d;" parent="1" vertex="1">
          <mxGeometry x="100" y="840" width="90" height="30" as="geometry" />
        </mxCell>
        <mxCell id="UCmkBhxg7ZvuFldwoFRE-9" value="&lt;h2&gt;&lt;font face=&quot;Garamond&quot;&gt;&lt;i&gt;&lt;u&gt;Dentist&lt;/u&gt;&lt;/i&gt;&lt;/font&gt;&lt;/h2&gt;" style="whiteSpace=wrap;html=1;align=center;fillColor=#bac8d3;strokeColor=#23445d;" parent="1" vertex="1">
          <mxGeometry x="50" y="150" width="90" height="30" as="geometry" />
        </mxCell>
        <mxCell id="UCmkBhxg7ZvuFldwoFRE-10" value="&lt;h2&gt;&lt;font face=&quot;Times New Roman&quot;&gt;&lt;i style=&quot;&quot;&gt;Description&lt;/i&gt;&lt;/font&gt;&lt;/h2&gt;" style="ellipse;whiteSpace=wrap;html=1;align=center;fillColor=#f5f5f5;fontColor=#333333;strokeColor=#666666;" parent="1" vertex="1">
          <mxGeometry x="-370" y="130" width="100" height="40" as="geometry" />
        </mxCell>
        <mxCell id="UCmkBhxg7ZvuFldwoFRE-11" value="&lt;h3&gt;&lt;font face=&quot;Times New Roman&quot;&gt;&lt;i&gt;Name&lt;/i&gt;&lt;/font&gt;&lt;/h3&gt;" style="ellipse;whiteSpace=wrap;html=1;align=center;fillColor=#f5f5f5;fontColor=#333333;strokeColor=#666666;" parent="1" vertex="1">
          <mxGeometry x="-315" y="40" width="80" height="30" as="geometry" />
        </mxCell>
        <mxCell id="UCmkBhxg7ZvuFldwoFRE-28" value="" style="edgeStyle=orthogonalEdgeStyle;rounded=0;orthogonalLoop=1;jettySize=auto;html=1;endArrow=ERoneToMany;endFill=0;" parent="1" source="UCmkBhxg7ZvuFldwoFRE-14" target="UCmkBhxg7ZvuFldwoFRE-3" edge="1">
          <mxGeometry relative="1" as="geometry" />
        </mxCell>
        <mxCell id="UCmkBhxg7ZvuFldwoFRE-29" value="" style="edgeStyle=orthogonalEdgeStyle;rounded=0;orthogonalLoop=1;jettySize=auto;html=1;endArrow=ERmandOne;endFill=0;" parent="1" source="UCmkBhxg7ZvuFldwoFRE-14" target="UCmkBhxg7ZvuFldwoFRE-1" edge="1">
          <mxGeometry relative="1" as="geometry" />
        </mxCell>
        <mxCell id="UCmkBhxg7ZvuFldwoFRE-14" value="&lt;h2&gt;&lt;font face=&quot;Georgia&quot;&gt;&lt;i&gt;&lt;u&gt;Take&lt;/u&gt;&lt;/i&gt;&lt;/font&gt;&lt;/h2&gt;" style="shape=rhombus;perimeter=rhombusPerimeter;whiteSpace=wrap;html=1;align=center;fillColor=#647687;strokeColor=#314354;fontColor=#ffffff;" parent="1" vertex="1">
          <mxGeometry x="-255" y="300" width="100" height="80" as="geometry" />
        </mxCell>
        <mxCell id="UCmkBhxg7ZvuFldwoFRE-89" style="edgeStyle=orthogonalEdgeStyle;rounded=0;orthogonalLoop=1;jettySize=auto;html=1;exitX=0.5;exitY=1;exitDx=0;exitDy=0;entryX=0.5;entryY=0;entryDx=0;entryDy=0;endArrow=ERoneToMany;endFill=0;" parent="1" source="UCmkBhxg7ZvuFldwoFRE-16" target="UCmkBhxg7ZvuFldwoFRE-23" edge="1">
          <mxGeometry relative="1" as="geometry" />
        </mxCell>
        <mxCell id="UCmkBhxg7ZvuFldwoFRE-16" value="&lt;h2&gt;&lt;font face=&quot;Georgia&quot;&gt;&lt;u&gt;&lt;i&gt;Receive&lt;/i&gt;&lt;/u&gt;&lt;/font&gt;&lt;/h2&gt;" style="shape=rhombus;perimeter=rhombusPerimeter;whiteSpace=wrap;html=1;align=center;fillColor=#647687;strokeColor=#314354;fontColor=#ffffff;" parent="1" vertex="1">
          <mxGeometry x="-270" y="550" width="110" height="70" as="geometry" />
        </mxCell>
        <mxCell id="UCmkBhxg7ZvuFldwoFRE-63" style="edgeStyle=orthogonalEdgeStyle;rounded=0;orthogonalLoop=1;jettySize=auto;html=1;exitX=1;exitY=0.5;exitDx=0;exitDy=0;entryX=0.5;entryY=1;entryDx=0;entryDy=0;endArrow=ERoneToMany;endFill=0;" parent="1" source="DfwyN7xhrI9GztpYTaJx-25" target="UCmkBhxg7ZvuFldwoFRE-6" edge="1">
          <mxGeometry relative="1" as="geometry">
            <mxPoint x="530" y="635" as="sourcePoint" />
          </mxGeometry>
        </mxCell>
        <mxCell id="UCmkBhxg7ZvuFldwoFRE-42" value="" style="edgeStyle=orthogonalEdgeStyle;rounded=0;orthogonalLoop=1;jettySize=auto;html=1;entryX=0;entryY=0.5;entryDx=0;entryDy=0;endArrow=ERoneToMany;endFill=0;" parent="1" source="UCmkBhxg7ZvuFldwoFRE-18" target="UCmkBhxg7ZvuFldwoFRE-2" edge="1">
          <mxGeometry relative="1" as="geometry" />
        </mxCell>
        <mxCell id="JUHCom5r3Zg-xqFQu9wX-58" style="edgeStyle=orthogonalEdgeStyle;rounded=0;orthogonalLoop=1;jettySize=auto;html=1;exitX=0;exitY=0.5;exitDx=0;exitDy=0;entryX=1;entryY=0.5;entryDx=0;entryDy=0;endArrow=ERmandOne;endFill=0;" parent="1" source="UCmkBhxg7ZvuFldwoFRE-18" target="UCmkBhxg7ZvuFldwoFRE-1" edge="1">
          <mxGeometry relative="1" as="geometry" />
        </mxCell>
        <mxCell id="UCmkBhxg7ZvuFldwoFRE-18" value="&lt;h2&gt;&lt;font face=&quot;Georgia&quot;&gt;&lt;u&gt;&lt;i&gt;Schedule&lt;/i&gt;&lt;/u&gt;&lt;/font&gt;&lt;/h2&gt;" style="shape=rhombus;perimeter=rhombusPerimeter;whiteSpace=wrap;html=1;align=center;fillColor=#647687;strokeColor=#314354;fontColor=#ffffff;" parent="1" vertex="1">
          <mxGeometry x="-70" y="447.5" width="120" height="75" as="geometry" />
        </mxCell>
        <mxCell id="JUHCom5r3Zg-xqFQu9wX-7" style="edgeStyle=orthogonalEdgeStyle;rounded=0;orthogonalLoop=1;jettySize=auto;html=1;exitX=0.5;exitY=1;exitDx=0;exitDy=0;entryX=0.5;entryY=0;entryDx=0;entryDy=0;endArrow=ERoneToMany;endFill=0;" parent="1" source="DfwyN7xhrI9GztpYTaJx-25" edge="1">
          <mxGeometry relative="1" as="geometry">
            <mxPoint x="284.4200000000001" y="700.0300000000003" as="sourcePoint" />
            <mxPoint x="160" y="835.89" as="targetPoint" />
          </mxGeometry>
        </mxCell>
        <mxCell id="UCmkBhxg7ZvuFldwoFRE-103" style="edgeStyle=orthogonalEdgeStyle;rounded=0;orthogonalLoop=1;jettySize=auto;html=1;exitX=0.5;exitY=0;exitDx=0;exitDy=0;entryX=0.5;entryY=1;entryDx=0;entryDy=0;endArrow=ERmandOne;endFill=0;" parent="1" source="UCmkBhxg7ZvuFldwoFRE-21" target="UCmkBhxg7ZvuFldwoFRE-7" edge="1">
          <mxGeometry relative="1" as="geometry" />
        </mxCell>
        <mxCell id="UCmkBhxg7ZvuFldwoFRE-104" style="edgeStyle=orthogonalEdgeStyle;rounded=0;orthogonalLoop=1;jettySize=auto;html=1;exitX=0.5;exitY=1;exitDx=0;exitDy=0;entryX=0.5;entryY=0;entryDx=0;entryDy=0;endArrow=ERoneToMany;endFill=0;" parent="1" source="UCmkBhxg7ZvuFldwoFRE-21" target="UCmkBhxg7ZvuFldwoFRE-22" edge="1">
          <mxGeometry relative="1" as="geometry" />
        </mxCell>
        <mxCell id="UCmkBhxg7ZvuFldwoFRE-21" value="&lt;h2&gt;&lt;i style=&quot;&quot;&gt;&lt;u style=&quot;&quot;&gt;&lt;font face=&quot;Georgia&quot;&gt;Track&lt;/font&gt;&lt;/u&gt;&lt;/i&gt;&lt;/h2&gt;" style="shape=rhombus;perimeter=rhombusPerimeter;whiteSpace=wrap;html=1;align=center;fillColor=#647687;strokeColor=#314354;fontColor=#ffffff;" parent="1" vertex="1">
          <mxGeometry x="410" y="940" width="110" height="70" as="geometry" />
        </mxCell>
        <mxCell id="UCmkBhxg7ZvuFldwoFRE-22" value="&lt;h2&gt;&lt;font face=&quot;Garamond&quot;&gt;&lt;u&gt;&lt;i&gt;Sterilization_log&lt;/i&gt;&lt;/u&gt;&lt;/font&gt;&lt;/h2&gt;" style="whiteSpace=wrap;html=1;align=center;fillColor=#bac8d3;strokeColor=#23445d;" parent="1" vertex="1">
          <mxGeometry x="395" y="1070" width="140" height="40" as="geometry" />
        </mxCell>
        <mxCell id="UCmkBhxg7ZvuFldwoFRE-23" value="&lt;h2&gt;&lt;font face=&quot;Garamond&quot;&gt;&lt;i&gt;&lt;u&gt;Reminder&lt;/u&gt;&lt;/i&gt;&lt;/font&gt;&lt;/h2&gt;" style="whiteSpace=wrap;html=1;align=center;fillColor=#bac8d3;strokeColor=#23445d;" parent="1" vertex="1">
          <mxGeometry x="-260" y="670" width="90" height="30" as="geometry" />
        </mxCell>
        <mxCell id="lSYsYURbzC7FzANGGzhk-23" style="edgeStyle=orthogonalEdgeStyle;rounded=0;orthogonalLoop=1;jettySize=auto;html=1;entryX=1;entryY=0.5;entryDx=0;entryDy=0;endArrow=ERmandOne;endFill=0;" parent="1" source="UCmkBhxg7ZvuFldwoFRE-24" target="UCmkBhxg7ZvuFldwoFRE-23" edge="1">
          <mxGeometry relative="1" as="geometry" />
        </mxCell>
        <mxCell id="UCmkBhxg7ZvuFldwoFRE-24" value="&lt;h2&gt;&lt;u&gt;&lt;i&gt;&lt;b&gt;&lt;font face=&quot;Georgia&quot;&gt;Trigger&lt;/font&gt;&lt;/b&gt;&lt;/i&gt;&lt;/u&gt;&lt;/h2&gt;" style="shape=rhombus;perimeter=rhombusPerimeter;whiteSpace=wrap;html=1;align=center;fillColor=#647687;strokeColor=#314354;fontColor=#ffffff;" parent="1" vertex="1">
          <mxGeometry x="-70" y="650" width="110" height="70" as="geometry" />
        </mxCell>
        <mxCell id="UCmkBhxg7ZvuFldwoFRE-30" value="&lt;h3&gt;&lt;font face=&quot;Times New Roman&quot;&gt;&lt;i&gt;T-id&lt;/i&gt;&lt;/font&gt;&lt;/h3&gt;" style="ellipse;whiteSpace=wrap;html=1;align=center;fontStyle=4;fillColor=#d5e8d4;strokeColor=#82b366;" parent="1" vertex="1">
          <mxGeometry x="-210" y="30" width="80" height="30" as="geometry" />
        </mxCell>
        <mxCell id="JUHCom5r3Zg-xqFQu9wX-15" style="edgeStyle=orthogonalEdgeStyle;rounded=0;orthogonalLoop=1;jettySize=auto;html=1;exitX=0.5;exitY=0;exitDx=0;exitDy=0;entryX=0.75;entryY=0;entryDx=0;entryDy=0;endArrow=ERmandOne;endFill=0;" parent="1" source="UCmkBhxg7ZvuFldwoFRE-38" target="UCmkBhxg7ZvuFldwoFRE-2" edge="1">
          <mxGeometry relative="1" as="geometry" />
        </mxCell>
        <mxCell id="JUHCom5r3Zg-xqFQu9wX-29" style="edgeStyle=orthogonalEdgeStyle;rounded=0;orthogonalLoop=1;jettySize=auto;html=1;exitX=0.5;exitY=1;exitDx=0;exitDy=0;entryX=1;entryY=0.25;entryDx=0;entryDy=0;endArrow=none;startFill=0;" parent="1" source="UCmkBhxg7ZvuFldwoFRE-38" target="UCmkBhxg7ZvuFldwoFRE-2" edge="1">
          <mxGeometry relative="1" as="geometry" />
        </mxCell>
        <mxCell id="UCmkBhxg7ZvuFldwoFRE-38" value="&lt;h2&gt;&lt;font face=&quot;Georgia&quot;&gt;&lt;u&gt;&lt;i&gt;FollowUp&lt;/i&gt;&lt;/u&gt;&lt;/font&gt;&lt;/h2&gt;" style="shape=rhombus;perimeter=rhombusPerimeter;whiteSpace=wrap;html=1;align=center;fillColor=#647687;strokeColor=#314354;fontColor=#ffffff;" parent="1" vertex="1">
          <mxGeometry x="390" y="330" width="110" height="80" as="geometry" />
        </mxCell>
        <mxCell id="UCmkBhxg7ZvuFldwoFRE-43" value="&lt;h3&gt;&lt;font face=&quot;Times New Roman&quot;&gt;&lt;i&gt;V-id&lt;/i&gt;&lt;/font&gt;&lt;/h3&gt;" style="ellipse;whiteSpace=wrap;html=1;align=center;fontStyle=4;fillColor=#d5e8d4;strokeColor=#82b366;" parent="1" vertex="1">
          <mxGeometry x="10" y="360" width="80" height="30" as="geometry" />
        </mxCell>
        <mxCell id="UCmkBhxg7ZvuFldwoFRE-44" value="&lt;h3&gt;&lt;font face=&quot;Times New Roman&quot;&gt;&lt;i&gt;VisitDate&lt;/i&gt;&lt;/font&gt;&lt;/h3&gt;" style="ellipse;whiteSpace=wrap;html=1;align=center;fillColor=#f5f5f5;fontColor=#333333;strokeColor=#666666;" parent="1" vertex="1">
          <mxGeometry x="40" y="300" width="80" height="30" as="geometry" />
        </mxCell>
        <mxCell id="UCmkBhxg7ZvuFldwoFRE-45" value="&lt;h3&gt;&lt;font face=&quot;Times New Roman&quot;&gt;Name&lt;/font&gt;&lt;/h3&gt;" style="ellipse;whiteSpace=wrap;html=1;align=center;fillColor=#f5f5f5;fontColor=#333333;strokeColor=#666666;" parent="1" vertex="1">
          <mxGeometry x="-20" y="920" width="80" height="30" as="geometry" />
        </mxCell>
        <mxCell id="UCmkBhxg7ZvuFldwoFRE-48" value="&lt;h3&gt;&lt;i&gt;&lt;font style=&quot;&quot; face=&quot;Times New Roman&quot;&gt;PainLevel&lt;/font&gt;&lt;/i&gt;&lt;/h3&gt;" style="ellipse;whiteSpace=wrap;html=1;align=center;fillColor=#f5f5f5;fontColor=#333333;strokeColor=#666666;" parent="1" vertex="1">
          <mxGeometry x="140" y="280" width="80" height="30" as="geometry" />
        </mxCell>
        <mxCell id="UCmkBhxg7ZvuFldwoFRE-49" value="&lt;h3&gt;&lt;font face=&quot;Times New Roman&quot;&gt;&lt;i style=&quot;&quot;&gt;&lt;b style=&quot;&quot;&gt;Name&lt;/b&gt;&lt;/i&gt;&lt;/font&gt;&lt;/h3&gt;" style="ellipse;whiteSpace=wrap;html=1;align=center;fillColor=#f5f5f5;fontColor=#333333;strokeColor=#666666;" parent="1" vertex="1">
          <mxGeometry x="40" y="-20" width="80" height="30" as="geometry" />
        </mxCell>
        <mxCell id="UCmkBhxg7ZvuFldwoFRE-51" value="&lt;h3&gt;&lt;font face=&quot;Times New Roman&quot;&gt;&lt;i&gt;Dosage&lt;/i&gt;&lt;/font&gt;&lt;/h3&gt;" style="ellipse;whiteSpace=wrap;html=1;align=center;fillColor=#f5f5f5;fontColor=#333333;strokeColor=#666666;" parent="1" vertex="1">
          <mxGeometry x="100" y="960" width="80" height="30" as="geometry" />
        </mxCell>
        <mxCell id="UCmkBhxg7ZvuFldwoFRE-52" value="&lt;h3&gt;&lt;font face=&quot;Times New Roman&quot;&gt;&lt;i&gt;Name&lt;/i&gt;&lt;/font&gt;&lt;/h3&gt;" style="ellipse;whiteSpace=wrap;html=1;align=center;fillColor=#f5f5f5;fontColor=#333333;strokeColor=#666666;" parent="1" vertex="1">
          <mxGeometry x="690" y="447.5" width="80" height="30" as="geometry" />
        </mxCell>
        <mxCell id="UCmkBhxg7ZvuFldwoFRE-53" value="&lt;h3&gt;&lt;font face=&quot;Times New Roman&quot;&gt;&lt;i&gt;Reason&lt;/i&gt;&lt;/font&gt;&lt;/h3&gt;" style="ellipse;whiteSpace=wrap;html=1;align=center;fillColor=#f5f5f5;fontColor=#333333;strokeColor=#666666;" parent="1" vertex="1">
          <mxGeometry x="350" y="510" width="80" height="30" as="geometry" />
        </mxCell>
        <mxCell id="UCmkBhxg7ZvuFldwoFRE-54" value="&lt;h3&gt;&lt;font face=&quot;Times New Roman&quot;&gt;D-id&lt;/font&gt;&lt;/h3&gt;" style="ellipse;whiteSpace=wrap;html=1;align=center;fontStyle=4;fillColor=#d5e8d4;strokeColor=#82b366;" parent="1" vertex="1">
          <mxGeometry x="130" y="20" width="80" height="30" as="geometry" />
        </mxCell>
        <mxCell id="UCmkBhxg7ZvuFldwoFRE-55" value="&lt;h3&gt;&lt;font face=&quot;Times New Roman&quot;&gt;&lt;i&gt;P-id&lt;/i&gt;&lt;/font&gt;&lt;/h3&gt;" style="ellipse;whiteSpace=wrap;html=1;align=center;fontStyle=4;fillColor=#d5e8d4;strokeColor=#82b366;" parent="1" vertex="1">
          <mxGeometry x="590" y="410" width="80" height="30" as="geometry" />
        </mxCell>
        <mxCell id="UCmkBhxg7ZvuFldwoFRE-56" value="&lt;h3&gt;&lt;font face=&quot;Times New Roman&quot;&gt;&lt;i&gt;M-id&lt;/i&gt;&lt;/font&gt;&lt;/h3&gt;" style="ellipse;whiteSpace=wrap;html=1;align=center;fontStyle=4;fillColor=#d5e8d4;strokeColor=#82b366;" parent="1" vertex="1">
          <mxGeometry x="235" y="930" width="80" height="30" as="geometry" />
        </mxCell>
        <mxCell id="UCmkBhxg7ZvuFldwoFRE-64" value="&lt;h3&gt;&lt;i style=&quot;&quot;&gt;&lt;b style=&quot;&quot;&gt;&lt;font style=&quot;&quot; face=&quot;Times New Roman&quot;&gt;Description&lt;/font&gt;&lt;/b&gt;&lt;/i&gt;&lt;/h3&gt;" style="ellipse;whiteSpace=wrap;html=1;align=center;fillColor=#f5f5f5;fontColor=#333333;strokeColor=#666666;" parent="1" vertex="1">
          <mxGeometry x="730" y="530" width="90" height="40" as="geometry" />
        </mxCell>
        <mxCell id="UCmkBhxg7ZvuFldwoFRE-66" value="&lt;h3&gt;&lt;font face=&quot;Times New Roman&quot;&gt;&lt;i&gt;Message&lt;/i&gt;&lt;/font&gt;&lt;/h3&gt;" style="ellipse;whiteSpace=wrap;html=1;align=center;fillColor=#f5f5f5;fontColor=#333333;strokeColor=#666666;" parent="1" vertex="1">
          <mxGeometry x="-235" y="770" width="80" height="30" as="geometry" />
        </mxCell>
        <mxCell id="UCmkBhxg7ZvuFldwoFRE-67" value="&lt;h3&gt;&lt;i style=&quot;&quot;&gt;&lt;b style=&quot;&quot;&gt;&lt;font style=&quot;&quot; face=&quot;Times New Roman&quot;&gt;Method&lt;/font&gt;&lt;/b&gt;&lt;/i&gt;&lt;/h3&gt;" style="ellipse;whiteSpace=wrap;html=1;align=center;fillColor=#f5f5f5;fontColor=#333333;strokeColor=#666666;" parent="1" vertex="1">
          <mxGeometry x="360" y="1160" width="80" height="30" as="geometry" />
        </mxCell>
        <mxCell id="UCmkBhxg7ZvuFldwoFRE-68" value="&lt;h3&gt;&lt;font face=&quot;Times New Roman&quot;&gt;&lt;i style=&quot;&quot;&gt;DateTime&lt;/i&gt;&lt;/font&gt;&lt;/h3&gt;" style="ellipse;whiteSpace=wrap;html=1;align=center;fillColor=#f5f5f5;fontColor=#333333;strokeColor=#666666;" parent="1" vertex="1">
          <mxGeometry x="490" y="1170" width="80" height="30" as="geometry" />
        </mxCell>
        <mxCell id="UCmkBhxg7ZvuFldwoFRE-69" value="&lt;h3&gt;&lt;i&gt;&lt;b&gt;&lt;font style=&quot;&quot; face=&quot;Times New Roman&quot;&gt;&lt;u&gt;SerialNo&lt;/u&gt;&lt;/font&gt;&lt;/b&gt;&lt;/i&gt;&lt;/h3&gt;" style="ellipse;whiteSpace=wrap;html=1;align=center;fillColor=#d5e8d4;strokeColor=#82b366;" parent="1" vertex="1">
          <mxGeometry x="660" y="860" width="80" height="30" as="geometry" />
        </mxCell>
        <mxCell id="UCmkBhxg7ZvuFldwoFRE-70" value="&lt;h3&gt;&lt;font face=&quot;Times New Roman&quot;&gt;&lt;i&gt;Name&lt;/i&gt;&lt;/font&gt;&lt;/h3&gt;" style="ellipse;whiteSpace=wrap;html=1;align=center;fillColor=#f5f5f5;fontColor=#333333;strokeColor=#666666;" parent="1" vertex="1">
          <mxGeometry x="610" y="790" width="80" height="30" as="geometry" />
        </mxCell>
        <mxCell id="UCmkBhxg7ZvuFldwoFRE-71" value="&lt;h3&gt;&lt;font face=&quot;Times New Roman&quot;&gt;&lt;i&gt;End_of_life&lt;/i&gt;&lt;/font&gt;&lt;/h3&gt;" style="ellipse;whiteSpace=wrap;html=1;align=center;fillColor=#f5f5f5;fontColor=#333333;strokeColor=#666666;" parent="1" vertex="1">
          <mxGeometry x="590" y="930" width="110" height="40" as="geometry" />
        </mxCell>
        <mxCell id="UCmkBhxg7ZvuFldwoFRE-73" value="&lt;h3&gt;&lt;font face=&quot;Times New Roman&quot;&gt;&lt;i&gt;Log-id&lt;/i&gt;&lt;/font&gt;&lt;/h3&gt;" style="ellipse;whiteSpace=wrap;html=1;align=center;fontStyle=4;fillColor=#d5e8d4;strokeColor=#82b366;" parent="1" vertex="1">
          <mxGeometry x="590" y="1090" width="80" height="30" as="geometry" />
        </mxCell>
        <mxCell id="UCmkBhxg7ZvuFldwoFRE-74" value="&lt;h3&gt;&lt;font face=&quot;Times New Roman&quot;&gt;&lt;i&gt;R-id&lt;/i&gt;&lt;/font&gt;&lt;/h3&gt;" style="ellipse;whiteSpace=wrap;html=1;align=center;fontStyle=4;fillColor=#d5e8d4;strokeColor=#82b366;" parent="1" vertex="1">
          <mxGeometry x="-390" y="720" width="80" height="30" as="geometry" />
        </mxCell>
        <mxCell id="UCmkBhxg7ZvuFldwoFRE-91" value="&lt;h3&gt;&lt;font face=&quot;Times New Roman&quot;&gt;&lt;i&gt;Date&lt;/i&gt;&lt;/font&gt;&lt;/h3&gt;" style="ellipse;whiteSpace=wrap;html=1;align=center;fillColor=#f5f5f5;fontColor=#333333;strokeColor=#666666;" parent="1" vertex="1">
          <mxGeometry x="-330" y="780" width="80" height="30" as="geometry" />
        </mxCell>
        <mxCell id="UCmkBhxg7ZvuFldwoFRE-102" style="edgeStyle=orthogonalEdgeStyle;rounded=0;orthogonalLoop=1;jettySize=auto;html=1;entryX=0.394;entryY=-0.074;entryDx=0;entryDy=0;exitX=0.75;exitY=1;exitDx=0;exitDy=0;entryPerimeter=0;endArrow=ERoneToMany;endFill=0;" parent="1" source="DfwyN7xhrI9GztpYTaJx-25" target="UCmkBhxg7ZvuFldwoFRE-7" edge="1">
          <mxGeometry relative="1" as="geometry">
            <mxPoint x="405" y="775" as="sourcePoint" />
          </mxGeometry>
        </mxCell>
        <mxCell id="UCmkBhxg7ZvuFldwoFRE-125" value="" style="endArrow=none;html=1;rounded=0;entryX=0.264;entryY=0.888;entryDx=0;entryDy=0;entryPerimeter=0;exitX=0.75;exitY=0;exitDx=0;exitDy=0;" parent="1" source="UCmkBhxg7ZvuFldwoFRE-6" target="UCmkBhxg7ZvuFldwoFRE-52" edge="1">
          <mxGeometry relative="1" as="geometry">
            <mxPoint x="380" y="480" as="sourcePoint" />
            <mxPoint x="540" y="480" as="targetPoint" />
          </mxGeometry>
        </mxCell>
        <mxCell id="JUHCom5r3Zg-xqFQu9wX-41" style="edgeStyle=orthogonalEdgeStyle;rounded=0;orthogonalLoop=1;jettySize=auto;html=1;exitX=1;exitY=0.5;exitDx=0;exitDy=0;entryX=0.5;entryY=1;entryDx=0;entryDy=0;endArrow=ERoneToMany;endFill=0;" parent="1" source="UCmkBhxg7ZvuFldwoFRE-133" target="UCmkBhxg7ZvuFldwoFRE-9" edge="1">
          <mxGeometry relative="1" as="geometry" />
        </mxCell>
        <mxCell id="UCmkBhxg7ZvuFldwoFRE-133" value="&lt;h2&gt;&lt;font face=&quot;Georgia&quot;&gt;&lt;i&gt;&lt;u&gt;Treat&lt;/u&gt;&lt;/i&gt;&lt;/font&gt;&lt;/h2&gt;" style="shape=rhombus;perimeter=rhombusPerimeter;whiteSpace=wrap;html=1;align=center;fillColor=#647687;strokeColor=#314354;fontColor=#ffffff;" parent="1" vertex="1">
          <mxGeometry x="-90" y="200" width="100" height="60" as="geometry" />
        </mxCell>
        <mxCell id="UCmkBhxg7ZvuFldwoFRE-143" style="edgeStyle=orthogonalEdgeStyle;rounded=0;orthogonalLoop=1;jettySize=auto;html=1;exitX=0.5;exitY=1;exitDx=0;exitDy=0;" parent="1" source="UCmkBhxg7ZvuFldwoFRE-7" target="UCmkBhxg7ZvuFldwoFRE-7" edge="1">
          <mxGeometry relative="1" as="geometry" />
        </mxCell>
        <mxCell id="JUHCom5r3Zg-xqFQu9wX-26" style="edgeStyle=orthogonalEdgeStyle;rounded=0;orthogonalLoop=1;jettySize=auto;html=1;exitX=0;exitY=0.5;exitDx=0;exitDy=0;entryX=1;entryY=0.5;entryDx=0;entryDy=0;endArrow=ERmandOne;endFill=0;" parent="1" source="lSYsYURbzC7FzANGGzhk-14" target="UCmkBhxg7ZvuFldwoFRE-9" edge="1">
          <mxGeometry relative="1" as="geometry">
            <mxPoint x="50" y="94.18181818181802" as="targetPoint" />
          </mxGeometry>
        </mxCell>
        <mxCell id="JUHCom5r3Zg-xqFQu9wX-44" style="edgeStyle=orthogonalEdgeStyle;rounded=0;orthogonalLoop=1;jettySize=auto;html=1;exitX=0.5;exitY=1;exitDx=0;exitDy=0;entryX=0.5;entryY=0;entryDx=0;entryDy=0;endArrow=ERoneToMany;endFill=0;" parent="1" source="lSYsYURbzC7FzANGGzhk-14" target="UCmkBhxg7ZvuFldwoFRE-2" edge="1">
          <mxGeometry relative="1" as="geometry">
            <Array as="points">
              <mxPoint x="228" y="250" />
            </Array>
          </mxGeometry>
        </mxCell>
        <mxCell id="lSYsYURbzC7FzANGGzhk-14" value="&lt;h2&gt;&lt;font face=&quot;Georgia&quot;&gt;&lt;i&gt;&lt;u&gt;Conduct&lt;/u&gt;&lt;/i&gt;&lt;/font&gt;&lt;/h2&gt;" style="shape=rhombus;perimeter=rhombusPerimeter;whiteSpace=wrap;html=1;align=center;fillColor=#647687;strokeColor=#314354;fontColor=#ffffff;" parent="1" vertex="1">
          <mxGeometry x="180" y="200" width="130" height="70" as="geometry" />
        </mxCell>
        <mxCell id="lSYsYURbzC7FzANGGzhk-20" value="" style="endArrow=none;html=1;rounded=0;entryX=0.5;entryY=0;entryDx=0;entryDy=0;exitX=0.365;exitY=0.964;exitDx=0;exitDy=0;exitPerimeter=0;" parent="1" source="UCmkBhxg7ZvuFldwoFRE-23" target="UCmkBhxg7ZvuFldwoFRE-66" edge="1">
          <mxGeometry relative="1" as="geometry">
            <mxPoint x="-120" y="600" as="sourcePoint" />
            <mxPoint x="40" y="600" as="targetPoint" />
          </mxGeometry>
        </mxCell>
        <mxCell id="lSYsYURbzC7FzANGGzhk-21" value="" style="endArrow=none;html=1;rounded=0;entryX=0.124;entryY=1.057;entryDx=0;entryDy=0;entryPerimeter=0;" parent="1" source="UCmkBhxg7ZvuFldwoFRE-91" target="UCmkBhxg7ZvuFldwoFRE-23" edge="1">
          <mxGeometry relative="1" as="geometry">
            <mxPoint x="-120" y="600" as="sourcePoint" />
            <mxPoint x="40" y="600" as="targetPoint" />
          </mxGeometry>
        </mxCell>
        <mxCell id="lSYsYURbzC7FzANGGzhk-22" value="" style="endArrow=none;html=1;rounded=0;exitX=1;exitY=0;exitDx=0;exitDy=0;entryX=0;entryY=0.5;entryDx=0;entryDy=0;" parent="1" source="UCmkBhxg7ZvuFldwoFRE-74" target="UCmkBhxg7ZvuFldwoFRE-23" edge="1">
          <mxGeometry relative="1" as="geometry">
            <mxPoint x="-120" y="600" as="sourcePoint" />
            <mxPoint x="40" y="600" as="targetPoint" />
          </mxGeometry>
        </mxCell>
        <mxCell id="lSYsYURbzC7FzANGGzhk-24" value="" style="endArrow=none;html=1;rounded=0;entryX=0.5;entryY=1;entryDx=0;entryDy=0;exitX=0.75;exitY=0;exitDx=0;exitDy=0;" parent="1" source="UCmkBhxg7ZvuFldwoFRE-9" target="UCmkBhxg7ZvuFldwoFRE-54" edge="1">
          <mxGeometry relative="1" as="geometry">
            <mxPoint x="-120" y="600" as="sourcePoint" />
            <mxPoint x="40" y="600" as="targetPoint" />
          </mxGeometry>
        </mxCell>
        <mxCell id="lSYsYURbzC7FzANGGzhk-25" value="" style="endArrow=none;html=1;rounded=0;exitX=0.5;exitY=0;exitDx=0;exitDy=0;entryX=0.629;entryY=1.014;entryDx=0;entryDy=0;entryPerimeter=0;" parent="1" source="UCmkBhxg7ZvuFldwoFRE-9" target="UCmkBhxg7ZvuFldwoFRE-49" edge="1">
          <mxGeometry relative="1" as="geometry">
            <mxPoint y="-10" as="sourcePoint" />
            <mxPoint x="10" y="-50" as="targetPoint" />
          </mxGeometry>
        </mxCell>
        <mxCell id="lSYsYURbzC7FzANGGzhk-26" value="" style="endArrow=none;html=1;rounded=0;exitX=0.5;exitY=1;exitDx=0;exitDy=0;entryX=0;entryY=0;entryDx=0;entryDy=0;" parent="1" target="UCmkBhxg7ZvuFldwoFRE-9" edge="1">
          <mxGeometry relative="1" as="geometry">
            <mxPoint x="-5" y="70" as="sourcePoint" />
            <mxPoint x="40" y="600" as="targetPoint" />
          </mxGeometry>
        </mxCell>
        <mxCell id="lSYsYURbzC7FzANGGzhk-27" value="" style="endArrow=none;html=1;rounded=0;exitX=1;exitY=1;exitDx=0;exitDy=0;" parent="1" source="UCmkBhxg7ZvuFldwoFRE-2" target="UCmkBhxg7ZvuFldwoFRE-53" edge="1">
          <mxGeometry relative="1" as="geometry">
            <mxPoint x="50" as="sourcePoint" />
            <mxPoint x="40" y="600" as="targetPoint" />
          </mxGeometry>
        </mxCell>
        <mxCell id="DfwyN7xhrI9GztpYTaJx-7" value="" style="endArrow=none;html=1;rounded=0;exitX=0.5;exitY=1;exitDx=0;exitDy=0;entryX=0.25;entryY=0;entryDx=0;entryDy=0;" parent="1" source="UCmkBhxg7ZvuFldwoFRE-48" target="UCmkBhxg7ZvuFldwoFRE-2" edge="1">
          <mxGeometry relative="1" as="geometry">
            <mxPoint x="170" y="390" as="sourcePoint" />
            <mxPoint x="330" y="390" as="targetPoint" />
          </mxGeometry>
        </mxCell>
        <mxCell id="DfwyN7xhrI9GztpYTaJx-8" value="" style="endArrow=none;html=1;rounded=0;entryX=0.5;entryY=1;entryDx=0;entryDy=0;" parent="1" target="UCmkBhxg7ZvuFldwoFRE-43" edge="1">
          <mxGeometry relative="1" as="geometry">
            <mxPoint x="180" y="460" as="sourcePoint" />
            <mxPoint x="330" y="390" as="targetPoint" />
          </mxGeometry>
        </mxCell>
        <mxCell id="DfwyN7xhrI9GztpYTaJx-9" value="" style="endArrow=none;html=1;rounded=0;entryX=0.25;entryY=0;entryDx=0;entryDy=0;" parent="1" source="UCmkBhxg7ZvuFldwoFRE-44" target="UCmkBhxg7ZvuFldwoFRE-2" edge="1">
          <mxGeometry relative="1" as="geometry">
            <mxPoint x="170" y="390" as="sourcePoint" />
            <mxPoint x="90" y="230" as="targetPoint" />
          </mxGeometry>
        </mxCell>
        <mxCell id="DfwyN7xhrI9GztpYTaJx-12" value="" style="endArrow=none;html=1;rounded=0;entryX=0;entryY=0;entryDx=0;entryDy=0;exitX=1;exitY=0.75;exitDx=0;exitDy=0;" parent="1" source="UCmkBhxg7ZvuFldwoFRE-7" target="UCmkBhxg7ZvuFldwoFRE-71" edge="1">
          <mxGeometry relative="1" as="geometry">
            <mxPoint x="150" y="610" as="sourcePoint" />
            <mxPoint x="310" y="610" as="targetPoint" />
          </mxGeometry>
        </mxCell>
        <mxCell id="DfwyN7xhrI9GztpYTaJx-13" value="" style="endArrow=none;html=1;rounded=0;entryX=0;entryY=0.5;entryDx=0;entryDy=0;exitX=1;exitY=0.5;exitDx=0;exitDy=0;" parent="1" source="UCmkBhxg7ZvuFldwoFRE-7" target="UCmkBhxg7ZvuFldwoFRE-69" edge="1">
          <mxGeometry relative="1" as="geometry">
            <mxPoint x="150" y="610" as="sourcePoint" />
            <mxPoint x="310" y="610" as="targetPoint" />
          </mxGeometry>
        </mxCell>
        <mxCell id="DfwyN7xhrI9GztpYTaJx-14" value="" style="endArrow=none;html=1;rounded=0;exitX=1;exitY=0;exitDx=0;exitDy=0;entryX=0.017;entryY=0.83;entryDx=0;entryDy=0;entryPerimeter=0;" parent="1" source="UCmkBhxg7ZvuFldwoFRE-7" target="UCmkBhxg7ZvuFldwoFRE-70" edge="1">
          <mxGeometry relative="1" as="geometry">
            <mxPoint x="150" y="610" as="sourcePoint" />
            <mxPoint x="610" y="790" as="targetPoint" />
          </mxGeometry>
        </mxCell>
        <mxCell id="DfwyN7xhrI9GztpYTaJx-17" value="" style="endArrow=none;html=1;rounded=0;exitX=0.5;exitY=0;exitDx=0;exitDy=0;entryX=0;entryY=1;entryDx=0;entryDy=0;" parent="1" source="UCmkBhxg7ZvuFldwoFRE-45" target="UCmkBhxg7ZvuFldwoFRE-8" edge="1">
          <mxGeometry relative="1" as="geometry">
            <mxPoint x="150" y="680" as="sourcePoint" />
            <mxPoint x="310" y="680" as="targetPoint" />
          </mxGeometry>
        </mxCell>
        <mxCell id="DfwyN7xhrI9GztpYTaJx-18" value="" style="endArrow=none;html=1;rounded=0;exitX=0.5;exitY=1;exitDx=0;exitDy=0;entryX=0.5;entryY=0;entryDx=0;entryDy=0;" parent="1" source="UCmkBhxg7ZvuFldwoFRE-8" target="UCmkBhxg7ZvuFldwoFRE-51" edge="1">
          <mxGeometry relative="1" as="geometry">
            <mxPoint x="150" y="680" as="sourcePoint" />
            <mxPoint x="365" y="990" as="targetPoint" />
          </mxGeometry>
        </mxCell>
        <mxCell id="DfwyN7xhrI9GztpYTaJx-19" value="" style="endArrow=none;html=1;rounded=0;entryX=0;entryY=0;entryDx=0;entryDy=0;exitX=1;exitY=1;exitDx=0;exitDy=0;" parent="1" source="UCmkBhxg7ZvuFldwoFRE-8" target="UCmkBhxg7ZvuFldwoFRE-56" edge="1">
          <mxGeometry relative="1" as="geometry">
            <mxPoint x="360" y="910" as="sourcePoint" />
            <mxPoint x="310" y="680" as="targetPoint" />
          </mxGeometry>
        </mxCell>
        <mxCell id="DfwyN7xhrI9GztpYTaJx-25" value="&lt;h2&gt;&lt;font face=&quot;Georgia&quot;&gt;&lt;u&gt;&lt;i&gt;Appointment&lt;/i&gt;&lt;/u&gt;&lt;/font&gt;&lt;/h2&gt;" style="shape=associativeEntity;whiteSpace=wrap;html=1;align=center;fillColor=#647687;strokeColor=#314354;fontColor=#ffffff;" parent="1" vertex="1">
          <mxGeometry x="200" y="610" width="150" height="90" as="geometry" />
        </mxCell>
        <mxCell id="DfwyN7xhrI9GztpYTaJx-34" value="" style="endArrow=none;html=1;rounded=0;exitX=0;exitY=1;exitDx=0;exitDy=0;entryX=0.75;entryY=0;entryDx=0;entryDy=0;" parent="1" source="UCmkBhxg7ZvuFldwoFRE-30" target="UCmkBhxg7ZvuFldwoFRE-3" edge="1">
          <mxGeometry relative="1" as="geometry">
            <mxPoint x="-70" y="140" as="sourcePoint" />
            <mxPoint x="90" y="140" as="targetPoint" />
          </mxGeometry>
        </mxCell>
        <mxCell id="DfwyN7xhrI9GztpYTaJx-35" value="" style="endArrow=none;html=1;rounded=0;exitX=0.6;exitY=1.063;exitDx=0;exitDy=0;exitPerimeter=0;entryX=0.388;entryY=-0.095;entryDx=0;entryDy=0;entryPerimeter=0;" parent="1" source="UCmkBhxg7ZvuFldwoFRE-11" target="UCmkBhxg7ZvuFldwoFRE-3" edge="1">
          <mxGeometry relative="1" as="geometry">
            <mxPoint x="-70" y="140" as="sourcePoint" />
            <mxPoint x="90" y="140" as="targetPoint" />
          </mxGeometry>
        </mxCell>
        <mxCell id="DfwyN7xhrI9GztpYTaJx-36" value="" style="endArrow=none;html=1;rounded=0;entryX=0.111;entryY=0;entryDx=0;entryDy=0;entryPerimeter=0;" parent="1" source="UCmkBhxg7ZvuFldwoFRE-10" target="UCmkBhxg7ZvuFldwoFRE-3" edge="1">
          <mxGeometry relative="1" as="geometry">
            <mxPoint x="-70" y="140" as="sourcePoint" />
            <mxPoint x="90" y="140" as="targetPoint" />
          </mxGeometry>
        </mxCell>
        <mxCell id="DfwyN7xhrI9GztpYTaJx-42" value="" style="endArrow=none;html=1;rounded=0;entryX=1;entryY=0.5;entryDx=0;entryDy=0;exitX=0;exitY=0.5;exitDx=0;exitDy=0;" parent="1" source="UCmkBhxg7ZvuFldwoFRE-73" target="UCmkBhxg7ZvuFldwoFRE-22" edge="1">
          <mxGeometry relative="1" as="geometry">
            <mxPoint x="120" y="780" as="sourcePoint" />
            <mxPoint x="280" y="780" as="targetPoint" />
          </mxGeometry>
        </mxCell>
        <mxCell id="DfwyN7xhrI9GztpYTaJx-43" value="" style="endArrow=none;html=1;rounded=0;entryX=0.34;entryY=0.03;entryDx=0;entryDy=0;exitX=0.5;exitY=1;exitDx=0;exitDy=0;entryPerimeter=0;" parent="1" source="UCmkBhxg7ZvuFldwoFRE-22" target="UCmkBhxg7ZvuFldwoFRE-68" edge="1">
          <mxGeometry relative="1" as="geometry">
            <mxPoint x="120" y="780" as="sourcePoint" />
            <mxPoint x="280" y="780" as="targetPoint" />
          </mxGeometry>
        </mxCell>
        <mxCell id="DfwyN7xhrI9GztpYTaJx-44" value="" style="endArrow=none;html=1;rounded=0;exitX=0.25;exitY=1;exitDx=0;exitDy=0;entryX=0.377;entryY=0.024;entryDx=0;entryDy=0;entryPerimeter=0;" parent="1" source="UCmkBhxg7ZvuFldwoFRE-22" target="UCmkBhxg7ZvuFldwoFRE-67" edge="1">
          <mxGeometry relative="1" as="geometry">
            <mxPoint x="120" y="780" as="sourcePoint" />
            <mxPoint x="280" y="780" as="targetPoint" />
          </mxGeometry>
        </mxCell>
        <mxCell id="JUHCom5r3Zg-xqFQu9wX-2" style="edgeStyle=orthogonalEdgeStyle;rounded=0;orthogonalLoop=1;jettySize=auto;html=1;exitX=0.5;exitY=1;exitDx=0;exitDy=0;entryX=1;entryY=0;entryDx=0;entryDy=0;endArrow=ERmandOne;endFill=0;" parent="1" source="UCmkBhxg7ZvuFldwoFRE-133" target="UCmkBhxg7ZvuFldwoFRE-1" edge="1">
          <mxGeometry relative="1" as="geometry">
            <mxPoint x="-20" y="220" as="sourcePoint" />
            <mxPoint x="-140" y="470" as="targetPoint" />
            <Array as="points">
              <mxPoint x="-40" y="260" />
              <mxPoint x="-139" y="260" />
              <mxPoint x="-139" y="470" />
            </Array>
          </mxGeometry>
        </mxCell>
        <mxCell id="JUHCom5r3Zg-xqFQu9wX-30" style="edgeStyle=orthogonalEdgeStyle;rounded=0;orthogonalLoop=1;jettySize=auto;html=1;exitX=1;exitY=0.5;exitDx=0;exitDy=0;entryX=0.072;entryY=1.073;entryDx=0;entryDy=0;entryPerimeter=0;endArrow=ERmandOne;endFill=0;" parent="1" source="UCmkBhxg7ZvuFldwoFRE-24" target="UCmkBhxg7ZvuFldwoFRE-2" edge="1">
          <mxGeometry relative="1" as="geometry" />
        </mxCell>
        <mxCell id="JUHCom5r3Zg-xqFQu9wX-31" value="" style="endArrow=none;html=1;rounded=0;entryX=-0.024;entryY=0.704;entryDx=0;entryDy=0;entryPerimeter=0;exitX=1;exitY=0.5;exitDx=0;exitDy=0;" parent="1" source="UCmkBhxg7ZvuFldwoFRE-6" target="UCmkBhxg7ZvuFldwoFRE-64" edge="1">
          <mxGeometry relative="1" as="geometry">
            <mxPoint x="390" y="500" as="sourcePoint" />
            <mxPoint x="550" y="500" as="targetPoint" />
          </mxGeometry>
        </mxCell>
        <mxCell id="JUHCom5r3Zg-xqFQu9wX-32" value="" style="endArrow=none;html=1;rounded=0;entryX=0.603;entryY=0.94;entryDx=0;entryDy=0;entryPerimeter=0;exitX=0.25;exitY=0;exitDx=0;exitDy=0;" parent="1" source="UCmkBhxg7ZvuFldwoFRE-6" target="UCmkBhxg7ZvuFldwoFRE-55" edge="1">
          <mxGeometry relative="1" as="geometry">
            <mxPoint x="390" y="500" as="sourcePoint" />
            <mxPoint x="550" y="500" as="targetPoint" />
          </mxGeometry>
        </mxCell>
        <mxCell id="JUHCom5r3Zg-xqFQu9wX-37" style="edgeStyle=orthogonalEdgeStyle;rounded=0;orthogonalLoop=1;jettySize=auto;html=1;exitX=0.25;exitY=0;exitDx=0;exitDy=0;entryX=0.57;entryY=0.955;entryDx=0;entryDy=0;entryPerimeter=0;endArrow=ERoneToMany;endFill=0;" parent="1" source="DfwyN7xhrI9GztpYTaJx-25" target="UCmkBhxg7ZvuFldwoFRE-2" edge="1">
          <mxGeometry relative="1" as="geometry" />
        </mxCell>
        <mxCell id="JUHCom5r3Zg-xqFQu9wX-45" style="edgeStyle=orthogonalEdgeStyle;rounded=0;orthogonalLoop=1;jettySize=auto;html=1;exitX=0.5;exitY=0;exitDx=0;exitDy=0;entryX=0.38;entryY=0.894;entryDx=0;entryDy=0;entryPerimeter=0;endArrow=ERmandOne;endFill=0;" parent="1" source="UCmkBhxg7ZvuFldwoFRE-16" target="UCmkBhxg7ZvuFldwoFRE-1" edge="1">
          <mxGeometry relative="1" as="geometry" />
        </mxCell>
        <mxCell id="JUHCom5r3Zg-xqFQu9wX-46" value="&lt;h3&gt;&lt;font face=&quot;Times New Roman&quot;&gt;&lt;i&gt;P-id&lt;/i&gt;&lt;/font&gt;&lt;/h3&gt;" style="ellipse;whiteSpace=wrap;html=1;align=center;fontStyle=4;fillColor=#d5e8d4;strokeColor=#82b366;" parent="1" vertex="1">
          <mxGeometry x="-370" y="370" width="80" height="30" as="geometry" />
        </mxCell>
        <mxCell id="JUHCom5r3Zg-xqFQu9wX-49" value="" style="endArrow=none;html=1;rounded=0;exitX=1;exitY=0.5;exitDx=0;exitDy=0;entryX=0;entryY=0.75;entryDx=0;entryDy=0;" parent="1" target="UCmkBhxg7ZvuFldwoFRE-1" edge="1">
          <mxGeometry relative="1" as="geometry">
            <mxPoint x="-349.99999999999477" y="515" as="sourcePoint" />
            <mxPoint x="-260" y="500" as="targetPoint" />
          </mxGeometry>
        </mxCell>
        <mxCell id="JUHCom5r3Zg-xqFQu9wX-50" value="" style="endArrow=none;html=1;rounded=0;entryX=1;entryY=0.5;entryDx=0;entryDy=0;exitX=0;exitY=0;exitDx=0;exitDy=0;" parent="1" source="UCmkBhxg7ZvuFldwoFRE-1" target="JUHCom5r3Zg-xqFQu9wX-54" edge="1">
          <mxGeometry relative="1" as="geometry">
            <mxPoint x="-280" y="530" as="sourcePoint" />
            <mxPoint x="-120" y="530" as="targetPoint" />
          </mxGeometry>
        </mxCell>
        <mxCell id="JUHCom5r3Zg-xqFQu9wX-51" value="" style="endArrow=none;html=1;rounded=0;exitX=1;exitY=1;exitDx=0;exitDy=0;" parent="1" source="JUHCom5r3Zg-xqFQu9wX-46" target="UCmkBhxg7ZvuFldwoFRE-1" edge="1">
          <mxGeometry relative="1" as="geometry">
            <mxPoint x="-280" y="530" as="sourcePoint" />
            <mxPoint x="-120" y="530" as="targetPoint" />
          </mxGeometry>
        </mxCell>
        <mxCell id="JUHCom5r3Zg-xqFQu9wX-54" value="&lt;h3&gt;&lt;font face=&quot;Times New Roman&quot;&gt;&lt;i&gt;DOB&lt;/i&gt;&lt;/font&gt;&lt;/h3&gt;" style="ellipse;whiteSpace=wrap;html=1;align=center;fillColor=#f5f5f5;fontColor=#333333;strokeColor=#666666;" parent="1" vertex="1">
          <mxGeometry x="-420" y="435" width="80" height="30" as="geometry" />
        </mxCell>
        <mxCell id="JUHCom5r3Zg-xqFQu9wX-55" value="&lt;h3&gt;&lt;font face=&quot;Times New Roman&quot;&gt;&lt;i&gt;Name&lt;/i&gt;&lt;/font&gt;&lt;/h3&gt;" style="ellipse;whiteSpace=wrap;html=1;align=center;fillColor=#f5f5f5;fontColor=#333333;strokeColor=#666666;" parent="1" vertex="1">
          <mxGeometry x="-380" y="550" width="80" height="30" as="geometry" />
        </mxCell>
        <mxCell id="JUHCom5r3Zg-xqFQu9wX-56" value="" style="endArrow=none;html=1;rounded=0;entryX=0.17;entryY=0.978;entryDx=0;entryDy=0;entryPerimeter=0;exitX=0.917;exitY=0.4;exitDx=0;exitDy=0;exitPerimeter=0;" parent="1" source="JUHCom5r3Zg-xqFQu9wX-55" target="UCmkBhxg7ZvuFldwoFRE-1" edge="1">
          <mxGeometry relative="1" as="geometry">
            <mxPoint x="-280" y="660" as="sourcePoint" />
            <mxPoint x="-120" y="660" as="targetPoint" />
          </mxGeometry>
        </mxCell>
        <mxCell id="JUHCom5r3Zg-xqFQu9wX-59" value="&lt;h1&gt;&lt;font face=&quot;Times New Roman&quot;&gt;&lt;i&gt;&lt;u&gt;Dental Clinic Database&lt;/u&gt;&lt;/i&gt;&lt;/font&gt;&lt;/h1&gt;" style="rounded=1;arcSize=10;whiteSpace=wrap;html=1;align=center;fillColor=#d5e8d4;strokeColor=#82b366;gradientColor=default;" parent="1" vertex="1">
          <mxGeometry x="-200" y="1090" width="360" height="90" as="geometry" />
        </mxCell>
        <mxCell id="JUHCom5r3Zg-xqFQu9wX-60" value="&lt;h3&gt;&lt;font face=&quot;Garamond&quot;&gt;&lt;i&gt;Phone_no&lt;/i&gt;&lt;/font&gt;&lt;/h3&gt;" style="ellipse;shape=doubleEllipse;margin=3;whiteSpace=wrap;html=1;align=center;fillColor=#f5f5f5;fontColor=#333333;strokeColor=#666666;" parent="1" vertex="1">
          <mxGeometry x="-450" y="490" width="100" height="40" as="geometry" />
        </mxCell>
        <mxCell id="JUHCom5r3Zg-xqFQu9wX-61" value="&lt;h3 style=&quot;color: rgb(51, 51, 51);&quot;&gt;&lt;font face=&quot;Times New Roman&quot;&gt;&lt;i&gt;Specialization&lt;/i&gt;&lt;/font&gt;&lt;/h3&gt;" style="ellipse;shape=doubleEllipse;margin=3;whiteSpace=wrap;html=1;align=center;fillColor=#f5f5f5;fontColor=#333333;strokeColor=#666666;" parent="1" vertex="1">
          <mxGeometry x="-60" y="30" width="100" height="40" as="geometry" />
        </mxCell>
        <mxCell id="JUHCom5r3Zg-xqFQu9wX-66" style="edgeStyle=orthogonalEdgeStyle;rounded=0;orthogonalLoop=1;jettySize=auto;html=1;entryX=1;entryY=0.75;entryDx=0;entryDy=0;endArrow=ERoneToMany;endFill=0;" parent="1" source="JUHCom5r3Zg-xqFQu9wX-65" target="UCmkBhxg7ZvuFldwoFRE-2" edge="1">
          <mxGeometry relative="1" as="geometry">
            <Array as="points">
              <mxPoint x="630" y="380" />
              <mxPoint x="530" y="380" />
              <mxPoint x="530" y="495" />
            </Array>
          </mxGeometry>
        </mxCell>
        <mxCell id="JUHCom5r3Zg-xqFQu9wX-69" style="edgeStyle=orthogonalEdgeStyle;rounded=0;orthogonalLoop=1;jettySize=auto;html=1;exitX=0;exitY=0.5;exitDx=0;exitDy=0;entryX=1;entryY=0;entryDx=0;entryDy=0;endArrow=ERmandOne;endFill=0;" parent="1" edge="1">
          <mxGeometry relative="1" as="geometry">
            <mxPoint x="565" y="285.07000000000045" as="sourcePoint" />
            <mxPoint x="-160" y="170.07000000000045" as="targetPoint" />
            <Array as="points">
              <mxPoint x="330" y="285.07" />
              <mxPoint x="330" y="-19.93" />
              <mxPoint x="-100" y="-19.93" />
              <mxPoint x="-100" y="170.07" />
            </Array>
          </mxGeometry>
        </mxCell>
        <mxCell id="JUHCom5r3Zg-xqFQu9wX-65" value="&lt;h2&gt;&lt;font face=&quot;Georgia&quot;&gt;&lt;i&gt;&lt;u&gt;Include&lt;/u&gt;&lt;/i&gt;&lt;/font&gt;&lt;/h2&gt;" style="shape=rhombus;perimeter=rhombusPerimeter;whiteSpace=wrap;html=1;align=center;fillColor=#647687;strokeColor=#314354;fontColor=#ffffff;" parent="1" vertex="1">
          <mxGeometry x="560" y="250" width="130" height="70" as="geometry" />
        </mxCell>
      </root>
    </mxGraphModel>
  </diagram>
</mxfile>
